<?xml version="1.0" encoding="iso-8859-1"?>
<!-- Generator: Adobe Illustrator 19.0.0, SVG Export Plug-In . SVG Version: 6.00 Build 0)  -->
<svg version="1.1" id="Capa_1" xmlns="http://www.w3.org/2000/svg" xmlns:xlink="http://www.w3.org/1999/xlink" x="0px" y="0px"
	 viewBox="0 0 480 480" style="enable-background:new 0 0 480 480;" xml:space="preserve">
<g>
	<g>
		<path d="M280,88c-15.073-1.028-29.794,4.86-40,16c-10.204-11.143-24.927-17.032-40-16c-26.499,0.026-47.974,21.501-48,48
			c0,59.84,80.456,108.8,83.88,110.856c2.535,1.523,5.705,1.523,8.24,0C247.544,244.8,328,195.84,328,136
			C327.974,109.501,306.499,88.026,280,88z M240,230.504C224.144,220,168,179.832,168,136c0-17.673,14.327-32,32-32
			c9.6,0,32,2.336,32,24c0,4.418,3.582,8,8,8s8-3.582,8-8c0-21.664,22.4-24,32-24c17.673,0,32,14.327,32,32
			C312,179.832,255.848,220,240,230.504z"/>
	</g>
</g>
<g>
	<g>
		<path d="M456,0H24C10.745,0,0,10.745,0,24v320c0,13.255,10.745,24,24,24h143.2l-6.4,64H136c-4.418,0-8,3.582-8,8v24h-16v16h256
			v-16h-16v-24c0-4.418-3.582-8-8-8h-24.76l-6.4-64H456c13.255,0,24-10.745,24-24V24C480,10.745,469.255,0,456,0z M336,448v16H144
			v-16H336z M176.84,432l6.4-64H296.8l6.4,64H176.84z M464,344c0,4.418-3.582,8-8,8H24c-4.418,0-8-3.582-8-8V24c0-4.418,3.582-8,8-8
			h432c4.418,0,8,3.582,8,8V344z"/>
	</g>
</g>
<g>
	<g>
		<path d="M432,32H48c-8.837,0-16,7.163-16,16v248c0,4.418,3.582,8,8,8h400c4.418,0,8-3.582,8-8V48C448,39.163,440.837,32,432,32z
			 M432,288H48V48h384V288z"/>
	</g>
</g>
<g>
	<g>
		<rect x="232" y="320" width="16" height="16"/>
	</g>
</g>
<g>
</g>
<g>
</g>
<g>
</g>
<g>
</g>
<g>
</g>
<g>
</g>
<g>
</g>
<g>
</g>
<g>
</g>
<g>
</g>
<g>
</g>
<g>
</g>
<g>
</g>
<g>
</g>
<g>
</g>
</svg>
