<svg id="ICON" xmlns="http://www.w3.org/2000/svg" width="108" height="108" viewBox="0 0 108 108">
  <circle id="Oval" cx="54" cy="54" r="54" fill="#f6f8f9"/>
  <g id="Group_54" data-name="Group 54" transform="translate(-1471.467 -576.444)">
    <g id="Group_15" data-name="Group 15" transform="translate(1493.017 638.73)">
      <g id="Group_14" data-name="Group 14" transform="translate(0)">
        <path id="Path_28" data-name="Path 28" d="M1557.8,764.84h-63.687a1.1,1.1,0,0,0-1.1,1.1A23.085,23.085,0,0,0,1516.076,789h19.765a23.086,23.086,0,0,0,23.059-23.059A1.1,1.1,0,0,0,1557.8,764.84ZM1535.841,786.8h-19.765a20.89,20.89,0,0,1-20.834-19.765h61.434A20.889,20.889,0,0,1,1535.841,786.8Z" transform="translate(-1493.017 -764.84)" fill="#98ca3f"/>
      </g>
    </g>
    <g id="Group_17" data-name="Group 17" transform="translate(1516.076 597)">
      <g id="Group_16" data-name="Group 16" transform="translate(0 0)">
        <path id="Path_29" data-name="Path 29" d="M1618.706,612.384c0-.08,0-.16-.009-.282a4.559,4.559,0,0,0-3.073-3.877l1.243-1.243a5.88,5.88,0,0,0,.485-7.874,5.772,5.772,0,0,0-8.116-.785c-.139.115-.274.237-.409.372l-1.351,1.37a4.582,4.582,0,0,0-3.912-3.058,4.389,4.389,0,0,0-4.622,4.152c0,.08-.005.16-.005.239v1.683a4.364,4.364,0,0,0-2.192-.591c-.079,0-.16,0-.282.009a4.551,4.551,0,0,0-4.115,4.574v1.493a4.38,4.38,0,0,0-2.191-.586c-.079,0-.159,0-.281.009a4.551,4.551,0,0,0-4.115,4.575v16.284a1.1,1.1,0,0,0,1.1,1.1h18.667a4.388,4.388,0,0,0,3.8-6.586h1.484a4.544,4.544,0,0,0,4.6-4.158,4.363,4.363,0,0,0-.6-2.457,4.392,4.392,0,0,0,3.9-4.36Zm-2.841,1.55a2.185,2.185,0,0,1-1.553.64h-3.3a1.1,1.1,0,0,0,0,2.2l.121,0a2.192,2.192,0,0,1,2.08,2.267,2.34,2.34,0,0,1-2.387,2.121h-5.3a1.1,1.1,0,1,0,0,2.2,2.2,2.2,0,1,1,0,4.392h-17.569V612.545a2.342,2.342,0,0,1,2.08-2.365l.12,0a2.2,2.2,0,0,1,2.193,2.193v.008a1.1,1.1,0,0,0,1.1,1.1h0a1.1,1.1,0,0,0,1.1-1.1h0v-5.322a2.342,2.342,0,0,1,2.08-2.365l.119,0a2.2,2.2,0,0,1,2.194,2.2v.007a1.1,1.1,0,0,0,1.1,1.1h0a1.1,1.1,0,0,0,1.1-1.1h0V601.4l0-.122a2.177,2.177,0,0,1,2.267-2.08,2.351,2.351,0,0,1,2.121,2.389v.911a1.1,1.1,0,0,0,1.88.77l2.979-3.023c.082-.08.165-.156.251-.227a3.571,3.571,0,0,1,5.01.47,3.687,3.687,0,0,1-.322,4.934l-2.888,2.888a1.1,1.1,0,0,0,.777,1.874h.969a2.34,2.34,0,0,1,2.326,2.08l0,.121A2.182,2.182,0,0,1,1615.865,613.934Z" transform="translate(-1585.76 -597)" fill="#98ca3f"/>
      </g>
    </g>
    <g id="Group_19" data-name="Group 19" transform="translate(1509.811 603.912)">
      <g id="Group_18" data-name="Group 18" transform="translate(0 0)">
        <rect id="Rectangle_1" data-name="Rectangle 1" width="43.48" height="2.196" rx="1.098" transform="translate(0 30.745) rotate(-45)" fill="#98ca3f"/>
      </g>
    </g>
    <g id="Group_21" data-name="Group 21" transform="translate(1533.643 605.796)">
      <g id="Group_20" data-name="Group 20" transform="translate(0 0)">
        <rect id="Rectangle_2" data-name="Rectangle 2" width="2.196" height="5.49" rx="1.098" fill="#98ca3f"/>
      </g>
    </g>
    <g id="Group_23" data-name="Group 23" transform="translate(1527.054 611.286)">
      <g id="Group_22" data-name="Group 22" transform="translate(0 0)">
        <rect id="Rectangle_3" data-name="Rectangle 3" width="2.196" height="6.588" rx="1.098" fill="#98ca3f"/>
      </g>
    </g>
    <g id="Group_25" data-name="Group 25" transform="translate(1520.466 616.765)">
      <g id="Group_24" data-name="Group 24" transform="translate(0 0)">
        <rect id="Rectangle_4" data-name="Rectangle 4" width="2.196" height="7.686" rx="1.098" fill="#98ca3f"/>
      </g>
    </g>
    <g id="Group_27" data-name="Group 27" transform="translate(1534.741 610.188)">
      <g id="Group_26" data-name="Group 26" transform="translate(0 0)">
        <rect id="Rectangle_5" data-name="Rectangle 5" width="5.49" height="2.196" rx="1.098" fill="#98ca3f"/>
      </g>
    </g>
    <g id="Group_29" data-name="Group 29" transform="translate(1528.152 616.765)">
      <g id="Group_28" data-name="Group 28" transform="translate(0 0)">
        <rect id="Rectangle_6" data-name="Rectangle 6" width="6.588" height="2.196" rx="1.098" fill="#98ca3f"/>
      </g>
    </g>
    <g id="Group_31" data-name="Group 31" transform="translate(1521.564 623.353)">
      <g id="Group_30" data-name="Group 30" transform="translate(0 0)">
        <rect id="Rectangle_7" data-name="Rectangle 7" width="7.686" height="2.196" rx="1.098" fill="#98ca3f"/>
      </g>
    </g>
    <g id="Group_33" data-name="Group 33" transform="translate(1496.993 599.502)">
      <g id="Group_32" data-name="Group 32" transform="translate(0)">
        <path id="Path_30" data-name="Path 30" d="M1525.528,609.64l0-.006a5.066,5.066,0,0,0-7.018-1.4c-.072.047-.144.1-.225.158l-.4.3-.38-.273a5.051,5.051,0,1,0-6.018,8.04l.925.723v.562a5.49,5.49,0,1,0,10.979,0v-.562l.972-.759A5.055,5.055,0,0,0,1525.528,609.64Zm-2.5,5.041-1.406,1.1a1.1,1.1,0,0,0-.422.865v1.1a3.294,3.294,0,1,1-6.588,0v-1.1a1.1,1.1,0,0,0-.422-.865l-1.406-1.1a1.07,1.07,0,0,0-.133-.089,2.855,2.855,0,1,1,3.4-4.535,1.081,1.081,0,0,0,.12.1l1.1.791a1.1,1.1,0,0,0,1.305-.016l1.157-.871a2.84,2.84,0,0,1,3.3,4.621Z" transform="translate(-1509.009 -607.062)" fill="#98ca3f"/>
      </g>
    </g>
    <g id="Group_35" data-name="Group 35" transform="translate(1517.172 598.098)">
      <g id="Group_34" data-name="Group 34" transform="translate(0)">
        <rect id="Rectangle_8" data-name="Rectangle 8" width="2.196" height="2.196" rx="1.098" fill="#98ca3f"/>
      </g>
    </g>
    <g id="Group_37" data-name="Group 37" transform="translate(1523.76 633.236)">
      <g id="Group_36" data-name="Group 36" transform="translate(0 0)">
        <rect id="Rectangle_9" data-name="Rectangle 9" width="2.196" height="2.196" rx="1.098" fill="#98ca3f"/>
      </g>
    </g>
    <g id="Group_39" data-name="Group 39" transform="translate(1552.312 603.777)">
      <g id="Group_38" data-name="Group 38" transform="translate(0 0)">
        <path id="Path_31" data-name="Path 31" d="M1731.5,625.36h0a1.078,1.078,0,0,0,.71,1.027,2.2,2.2,0,0,1,0,4.157,1.078,1.078,0,0,0-.71,1.027h0a1.1,1.1,0,0,0,1.44,1.045,4.393,4.393,0,0,0,0-8.3A1.1,1.1,0,0,0,1731.5,625.36Z" transform="translate(-1731.502 -624.255)" fill="#98ca3f"/>
      </g>
    </g>
    <g id="Group_41" data-name="Group 41" transform="translate(1495.211 613.482)">
      <g id="Group_40" data-name="Group 40" transform="translate(0 0)">
        <rect id="Rectangle_10" data-name="Rectangle 10" width="2.196" height="2.196" rx="1.098" fill="#98ca3f"/>
      </g>
    </g>
    <g id="Group_43" data-name="Group 43" transform="translate(1493.017 609.09)">
      <g id="Group_42" data-name="Group 42" transform="translate(0 0)">
        <rect id="Rectangle_11" data-name="Rectangle 11" width="2.196" height="2.196" rx="1.098" fill="#98ca3f"/>
      </g>
    </g>
    <g id="Group_45" data-name="Group 45" transform="translate(1531.631 632.142)">
      <g id="Group_44" data-name="Group 44" transform="translate(0)">
        <path id="Path_32" data-name="Path 32" d="M1652.534,738.342a4.4,4.4,0,0,0-4.15,2.952,1.1,1.1,0,0,0,1.045,1.44h0a1.078,1.078,0,0,0,1.027-.71,2.2,2.2,0,0,1,4.157,0,1.078,1.078,0,0,0,1.027.71h0a1.1,1.1,0,0,0,1.045-1.44A4.4,4.4,0,0,0,1652.534,738.342Z" transform="translate(-1648.325 -738.342)" fill="#98ca3f"/>
      </g>
    </g>
    <g id="Group_47" data-name="Group 47" transform="translate(1493.017 618.965)">
      <g id="Group_46" data-name="Group 46" transform="translate(0)">
        <path id="Path_33" data-name="Path 33" d="M1506.194,688.639h-.138a4.394,4.394,0,0,0-8.508,0h-.138a4.392,4.392,0,0,0,0,8.784h8.784a4.392,4.392,0,1,0,0-8.784Zm0,6.589h-8.784a2.2,2.2,0,1,1,0-4.392h1.1a1.1,1.1,0,0,0,1.1-1.1,2.2,2.2,0,0,1,4.392,0,1.1,1.1,0,0,0,1.1,1.1h1.1a2.2,2.2,0,1,1,0,4.392Z" transform="translate(-1493.018 -685.345)" fill="#98ca3f"/>
      </g>
    </g>
    <g id="Group_49" data-name="Group 49" transform="translate(1498.507 628.848)">
      <g id="Group_48" data-name="Group 48" transform="translate(0 0)">
        <path id="Path_34" data-name="Path 34" d="M1520.589,725.093H1516.2a1.1,1.1,0,0,0-1.1,1.1v4.392a1.1,1.1,0,0,0,1.1,1.1h4.392a1.1,1.1,0,0,0,1.1-1.1v-4.392A1.1,1.1,0,0,0,1520.589,725.093Zm-1.1,4.392h-2.2v-2.2h2.2v2.2Z" transform="translate(-1515.099 -725.093)" fill="#98ca3f"/>
      </g>
    </g>
    <g id="Group_51" data-name="Group 51" transform="translate(1547.92 625.554)">
      <g id="Group_50" data-name="Group 50" transform="translate(0 0)">
        <path id="Path_35" data-name="Path 35" d="M1717.131,711.844a3.294,3.294,0,1,0,3.294,3.294A3.3,3.3,0,0,0,1717.131,711.844Zm0,4.393a1.1,1.1,0,1,1,1.1-1.1A1.1,1.1,0,0,1,1717.131,716.237Z" transform="translate(-1713.837 -711.844)" fill="#98ca3f"/>
      </g>
    </g>
    <g id="Group_53" data-name="Group 53" transform="translate(1543.527 621.162)">
      <g id="Group_52" data-name="Group 52" transform="translate(0 0)">
        <path id="Path_36" data-name="Path 36" d="M1703.857,694.178a7.686,7.686,0,1,0,7.686,7.687A7.7,7.7,0,0,0,1703.857,694.178Zm0,13.178a5.49,5.49,0,1,1,5.49-5.49A5.5,5.5,0,0,1,1703.857,707.356Z" transform="translate(-1696.171 -694.178)" fill="#98ca3f"/>
      </g>
    </g>
  </g>
</svg>
