<svg xmlns="http://www.w3.org/2000/svg" width="329.717" height="206.86" viewBox="0 0 329.717 206.86">
  <g id="Group_68" data-name="Group 68" transform="translate(-366.628 -902.469)">
    <g id="Group_57" data-name="Group 57" transform="translate(366.628 992.934)">
      <path id="Path_46" data-name="Path 46" d="M401.956,1007.127c4.11,3.224,6.1,8.024,6.1,14.038a25.938,25.938,0,0,1-6.9,17.829,33.664,33.664,0,0,1-17.053,10.407c-.791.2-2.109.411-3.82.73v25.137c0,4.279.789,7.411,2.239,9.307-1.186.176-3.294.726-6.318,1.55q-1.576.429-3.153.868c-3.151.877-5.248,1.486-6.427,1.961a22.2,22.2,0,0,0,2.359-10.574v-59.366c0-3.877-.787-7-2.359-9.08a46.416,46.416,0,0,0,4.72-1.217c1.969-.554,4.2-1.172,6.833-2.013,2.631-.706,4.477-1.184,5.531-1.457C391.752,1003.173,397.846,1003.908,401.956,1007.127Zm-8.342,27.476a18.123,18.123,0,0,0,3.573-10.74c0-3.609-1.059-6.574-3.308-8.711-2.248-2-5.42-2.566-9.376-1.552-.659.17-1.45.373-2.373.615a14.838,14.838,0,0,1-1.843.619v27.008c1.579-.284,2.766-.457,3.557-.661A16.847,16.847,0,0,0,393.614,1034.6Z" transform="translate(-366.628 -986.471)" fill="#182c3f"/>
      <path id="Path_47" data-name="Path 47" d="M424.813,1063.848c0,4.279.8,7.478,2.27,9.494-1.2.077-3.339.451-6.405,1.021q-1.6.3-3.2.6c-3.2.614-5.325,1.046-6.523,1.422a20.771,20.771,0,0,0,2.4-10.376v-34.72c0-3.878-.8-7.063-2.4-9.279,1.862-.245,4.258-.723,7.323-1.307l.133-.026,1.333-.251.134-.026c3.066-.574,5.469-1,7.2-1.437a20.772,20.772,0,0,0-2.27,10.162Z" transform="translate(-363.809 -985.524)" fill="#182c3f"/>
      <path id="Path_48" data-name="Path 48" d="M467.393,1058.59a10.752,10.752,0,0,0,5.383-5.738l-1.346,16.037q-19.383,1.841-38.652,4.961v-6.418q12.907-33.511,25.876-66.45-7.593.889-15.165,1.973c-4.289.615-7.232,3.354-8.7,8.132q.067-8.167.134-16.334,18.2-2.88,36.511-4.617v6.552q-12.854,32.64-25.663,65.845,6.3-.877,12.618-1.619A27.937,27.937,0,0,0,467.393,1058.59Z" transform="translate(-362.421 -987.358)" fill="#182c3f"/>
      <path id="Path_49" data-name="Path 49" d="M511.4,1055.847a9.616,9.616,0,0,0,5.4-5.309q-.675,7.964-1.351,15.931-19.446.3-38.858,1.875v-6.418q13-32.479,26.031-64.382-7.628.282-15.247.763c-4.316.272-7.28,2.775-8.763,7.436q.067-8.162.135-16.323,18.326-1.423,36.7-1.7v6.552q-12.9,31.618-25.782,63.8,6.34-.373,12.685-.611A26.719,26.719,0,0,0,511.4,1055.847Z" transform="translate(-359.634 -987.512)" fill="#182c3f"/>
      <path id="Path_50" data-name="Path 50" d="M550.621,1056.421a8.846,8.846,0,0,0,5.4-4.792q-.673,7.849-1.349,15.7-13.961-.78-27.944-.9c-3.242-.027-5.4-.021-6.619.115,1.621-2.544,2.431-5.75,2.431-9.9V997.286a18.052,18.052,0,0,0-2.431-9.76l1.081,0a5.1,5.1,0,0,0,1.351.134q16.139.022,32.266.926.067,6.889.135,13.779c-1.484-2.89-4.452-4.527-8.636-4.7q-6.074-.252-12.151-.381v18.585c5.266.113,8.642.245,10.4.177a12.863,12.863,0,0,0,6.749-1.974,54.482,54.482,0,0,0-.27,6.539,56.39,56.39,0,0,0,.27,6.7,14.482,14.482,0,0,0-7.288-2.593c-1.62-.194-4.86-.317-9.856-.423v32.892q3.714.078,7.426.2A25.878,25.878,0,0,0,550.621,1056.421Z" transform="translate(-356.866 -987.524)" fill="#182c3f"/>
      <path id="Path_51" data-name="Path 51" d="M594.763,1042.034a89.918,89.918,0,0,1,4.965,12.427,105.387,105.387,0,0,0,4.288,11.7c1.608,3.711,3.216,6.089,4.956,7.025q-7.631-1.173-15.283-2.146a31.826,31.826,0,0,1-4.163-9.606c-1.344-4.306-2.419-8.174-3.225-11.876a32.813,32.813,0,0,0-4.168-10.356c-2.017-3.291-4.438-5.28-7.535-5.973v25.939c0,4.279.808,7.7,2.288,10.114-1.211-.252-3.364-.462-6.461-.732q-1.616-.14-3.233-.272c-3.232-.264-5.389-.416-6.6-.368,1.618-2.426,2.426-5.573,2.426-9.719V998.828a19.017,19.017,0,0,0-2.426-9.936c1.887.267,4.313.445,7.412.7l.134.011q4.984.415,9.963.914c8.208.824,14.518,3.5,18.678,7.923a21.964,21.964,0,0,1,6.169,15.424,19.767,19.767,0,0,1-4.425,13.155,15.056,15.056,0,0,1-10.606,5.747Q591.542,1035.6,594.763,1042.034Zm-6.581-19.264a11.9,11.9,0,0,0,3.762-9.172,14.8,14.8,0,0,0-3.358-9.633,13.745,13.745,0,0,0-9.681-4.943q-1.008-.1-2.422-.24a13.171,13.171,0,0,1-1.885-.047v26.741q1.817.171,3.634.353C582.4,1026.25,585.629,1025.279,588.182,1022.77Z" transform="translate(-354.292 -987.437)" fill="#182c3f"/>
      <path id="Path_52" data-name="Path 52" d="M625,1066.339a20.823,20.823,0,0,0,2.265,10.324c-1.2-.363-3.331-.77-6.4-1.324q-1.6-.289-3.2-.569c-3.206-.559-5.345-.91-6.548-.973,1.6-2.278,2.406-5.351,2.406-9.5v-59.366a20.383,20.383,0,0,0-2.406-10.158c1.871.439,4.278.84,7.348,1.381l.134.023,1.334.237.134.025c3.07.55,5.469,1,7.2,1.2-1.466,2.126-2.265,5.186-2.265,9.331Z" transform="translate(-351.078 -987.063)" fill="#182c3f"/>
      <path id="Path_53" data-name="Path 53" d="M679.6,1089.107c-.917-.266-2.227-.646-4.064-1.3-1.968-.556-3.413-.955-4.333-1.207s-2.234-.613-4.076-1.1c-1.843-.358-3.293-.735-4.215-.974a4.589,4.589,0,0,0,1.582-3.867,23.084,23.084,0,0,0-.4-3.713q-.79-4.686-1.58-9.369c-.045-.189-.088-.38-.132-.569q-7.91-2.041-15.859-3.86c-.044.169-.088.337-.132.505q-.862,4.282-1.723,8.567a18.472,18.472,0,0,0-.4,3.386,6.116,6.116,0,0,0,2.121,4.892c-.927-.212-2.386-.542-4.11-1.057-1.857-.411-3.185-.7-4.115-.895s-2.391-.508-4.119-.865c-1.861-.249-3.192-.515-4.124-.7,2-1.475,3.592-4.221,4.522-8.308q6.648-28.776,13.27-57.4a25.539,25.539,0,0,0,.794-5.432,6.809,6.809,0,0,0-1.192-4.153c1.59.5,3.973,1.055,7.012,1.793l.133.033.924.225.133.032c3.038.747,5.28,1.32,6.994,1.628a4.541,4.541,0,0,0-1.187,3.572,52.241,52.241,0,0,0,.528,5.216q6.986,32.883,13.941,65.94A29.906,29.906,0,0,0,679.6,1089.107Zm-25.134-66.473c-.133.906-2.113,11.377-6.218,31.549q6.157,1.428,12.291,2.99C656.448,1034.606,654.463,1023.038,654.464,1022.633Z" transform="translate(-349.882 -986.623)" fill="#182c3f"/>
    </g>
    <g id="Group_59" data-name="Group 59" transform="translate(387.028 902.469)">
      <path id="Path_54" data-name="Path 54" d="M424.637,1011.652c0,3.878.666,6.822,2.131,8.814a58.874,58.874,0,0,0-5.99,1.05q-1.53.313-3.058.636a60.889,60.889,0,0,0-5.971,1.437,19.566,19.566,0,0,0,2.121-9.7V933.284c0-3.877-.663-6.674-2.121-8.619,1.723-.254,3.978-.752,6.769-1.337l.133-.029,1.2-.248.133-.028c2.793-.575,5.056-1.017,6.789-1.482a18.614,18.614,0,0,0-2.131,9.5Z" transform="translate(-384.158 -901.256)" fill="#182c3f"/>
      <path id="Path_55" data-name="Path 55" d="M494.141,972.848q-.606,7.443-1.215,14.886-13.094.5-26.155,1.746a59.171,59.171,0,0,0-6.054.749c1.479-2.432,2.152-5.575,2.152-9.453V925.287c0-3.877-.672-6.751-2.152-8.864,1.749-.055,4.035-.295,6.861-.558l.135-.013,1.211-.111.135-.013c2.827-.254,5.118-.436,6.87-.7-1.483,2.385-2.156,5.382-2.156,9.259v55.889q3.436-.274,6.874-.5C487.661,979.227,492.117,977.07,494.141,972.848Z" transform="translate(-381.044 -901.67)" fill="#182c3f"/>
      <path id="Path_56" data-name="Path 56" d="M543.463,988.912c-.943-.071-2.292-.17-4.045-.42-1.753-.117-3.1-.2-3.911-.244-.943-.054-2.293-.131-4.047-.217-1.754.048-3.1-.01-4.049-.048a5.191,5.191,0,0,0,1.62-3.943,17.339,17.339,0,0,0-.405-3.361q-.809-4.245-1.619-8.49c-.046-.181-.09-.36-.135-.54q-7.559-.3-15.123-.35l-.135.534q-.81,4.207-1.621,8.416a17.072,17.072,0,0,0-.405,3.208,4.849,4.849,0,0,0,2.026,4.153c-.946-.005-2.161-.012-3.917-.142-1.755,0-2.971.014-3.916.023-.81.009-2.026.022-3.781.054-1.756.167-3.107.2-4.051.226a17.079,17.079,0,0,0,4.321-8.789q6.347-28.124,12.7-56.076a50.335,50.335,0,0,0,.675-5.474,6.086,6.086,0,0,0-1.081-3.621c1.486.146,3.781.172,6.617.237l.135,0c.315.006.631.015.945.022l.135,0c2.836.072,5.131.156,6.616.082a5.852,5.852,0,0,0-1.081,3.568c0,.4.135,2.144.54,4.968q6.682,29.2,13.357,58.6A21.4,21.4,0,0,0,543.463,988.912Zm-24.152-57.076c0,.4-1.89,10.643-5.806,30.789q5.807.061,11.612.268C521.2,942.7,519.311,932.374,519.311,931.836Z" transform="translate(-378.803 -901.747)" fill="#182c3f"/>
      <path id="Path_57" data-name="Path 57" d="M561.152,925.577V981.6c0,3.878.671,7.031,2.148,9.487a59.092,59.092,0,0,0-6.047-.844q-1.546-.172-3.093-.333a57.567,57.567,0,0,0-6.055-.457c1.481-2.138,2.154-5.147,2.154-9.025V924.271l-.269-.026a24.809,24.809,0,0,0-8.081.238,6.986,6.986,0,0,0-4.583,4.079q.2-6.871.405-13.744c1.483.1,4.179.288,8.355.648,4.039.485,7.269.816,9.689,1.075,2.286.248,5.513.609,9.673,1.011,4.16.539,6.839.934,8.18,1.13q.2,7.048.4,14.1a9.931,9.931,0,0,0-4.289-5.027,21.238,21.238,0,0,0-7.112-2Q561.89,925.665,561.152,925.577Z" transform="translate(-376.171 -901.683)" fill="#182c3f"/>
      <path id="Path_58" data-name="Path 58" d="M612.109,980.679q-.593,6.915-1.19,13.832-17.794-4.011-35.809-6.676v-5.717q12.045-26.106,24.009-51.608-6.975-1.391-13.984-2.578c-4-.677-6.68.949-8.151,4.662q.067-7.168.134-14.336,16.989,2.586,33.8,6.375v5.717q-11.84,25.282-23.783,51.161,5.87,1.018,11.717,2.182C605.763,985.073,610.126,984.169,612.109,980.679Z" transform="translate(-373.768 -901.465)" fill="#182c3f"/>
      <path id="Path_59" data-name="Path 59" d="M628.613,990.428a18.724,18.724,0,0,0,2.1,9.341c-1.049-.416-3.013-.957-5.9-1.717q-1.511-.4-3.024-.784c-2.894-.739-4.872-1.219-5.927-1.349,1.451-1.808,2.109-4.565,2.109-8.25V934.942a17.787,17.787,0,0,0-2.109-9.156c1.715.542,3.954,1.093,6.717,1.8l.132.034q.59.152,1.183.306l.132.034c2.759.72,4.988,1.326,6.691,1.669-1.441,1.762-2.1,4.382-2.1,8.066Z" transform="translate(-371.176 -900.986)" fill="#182c3f"/>
      <g id="Group_58" data-name="Group 58">
        <path id="Path_60" data-name="Path 60" d="M448.976,909.181c-6.987-6.094-16.581-8.165-28.441-5.692-11.523,2.41-20.275,8.017-26.089,16.177a43.844,43.844,0,0,0-8.639,26.05c0,7.514,1.719,13.694,5.123,18.43,3.579,4.892,8.14,6.653,13.57,5.317a13.665,13.665,0,0,0,9.565-7.375l.286-.586q-4.079-4.879-8.145-9.683v3.712c0,3.167-.5,7.058-2.9,7.651-1.93.481-3.631-.989-5.195-4.488-1.532-3.615-2.307-8.284-2.307-13.891a47.66,47.66,0,0,1,2.175-14.137,32.443,32.443,0,0,1,8.131-12.457,28.378,28.378,0,0,1,14.684-7.664c8.56-1.778,15.186-.1,20.22,4.887,5.065,5.023,7.534,12.4,7.532,22.42,0,10.292-2.516,18.66-7.679,25.715-4.965,6.793-11.911,11.031-20.605,12.848-6.426,1.346-11.877,1.751-16.218,1.091a21.014,21.014,0,0,1-5.176-1.484q-1.12,2.559-2.237,5.125a17.928,17.928,0,0,0,4.234,1.939c5.262,1.67,11.648,1.668,19,.122,12.122-2.545,21.9-7.76,28.965-15.981,7.21-8.229,10.879-18.437,10.878-30.6C459.715,924.58,456.092,915.259,448.976,909.181Z" transform="translate(-385.808 -902.469)" fill="#182c3f"/>
      </g>
      <path id="Path_61" data-name="Path 61" d="M433.878,924.934c-.8,7.231-2.4,9.062-9.455,11.214,7.057-.553,8.659.812,9.455,7.743.8-7.208,2.391-9.125,9.481-11.017C436.269,933.168,434.678,931.889,433.878,924.934Z" transform="translate(-383.352 -901.04)" fill="#182c3f"/>
    </g>
    <g id="Group_67" data-name="Group 67" transform="translate(462.883 1087.588)">
      <g id="Group_64" data-name="Group 64" transform="translate(15.961)">
        <g id="Group_61" data-name="Group 61" transform="translate(52.89)">
          <g id="Group_60" data-name="Group 60">
            <path id="Path_62" data-name="Path 62" d="M531.808,1093.008l-.34,4.615h-9.606v-1.7a9.092,9.092,0,0,1,1.1-4.122,18.5,18.5,0,0,1,2.382-3.593,21.469,21.469,0,0,0,2.383-3.291,6.631,6.631,0,0,0,1.1-3.328,2.3,2.3,0,0,0-2.421-2.572,4.307,4.307,0,0,0-2.345.756,4.1,4.1,0,0,0-1.7,2.043v-4.275a9.831,9.831,0,0,1,4.577-1.021,4.881,4.881,0,0,1,3.593,1.361,4.623,4.623,0,0,1,1.361,3.4,8.234,8.234,0,0,1-1.059,3.819,17.908,17.908,0,0,1-2.421,3.517,30.547,30.547,0,0,0-2.458,3.254,6.676,6.676,0,0,0-1.286,2.988h2.95C529.841,1094.862,531.24,1094.257,531.808,1093.008Z" transform="translate(-521.861 -1076.518)" fill="#182c3f"/>
            <path id="Path_63" data-name="Path 63" d="M545.948,1087.259c0,7.11-2.043,10.666-6.09,10.666s-6.051-3.556-6.051-10.7,2-10.7,6.051-10.7S545.948,1080.111,545.948,1087.259Zm-7.6-7.564a5.582,5.582,0,0,0-.946,2.194,22.464,22.464,0,0,0-.416,2.647,20.454,20.454,0,0,0-.151,2.685,21.434,21.434,0,0,0,.567,5.447l4.35-12.443a2.052,2.052,0,0,0-1.854-1.361A1.86,1.86,0,0,0,538.345,1079.695Zm3.1,15.053a5.144,5.144,0,0,0,.907-2.156,21.312,21.312,0,0,0,.417-2.647q.113-1.3.113-2.724a22.84,22.84,0,0,0-.567-5.56l-4.35,12.481a2.213,2.213,0,0,0,1.929,1.437A1.859,1.859,0,0,0,541.447,1094.748Z" transform="translate(-521.101 -1076.518)" fill="#182c3f"/>
            <path id="Path_64" data-name="Path 64" d="M552.751,1097.651c-.3-.037-.87-.037-1.7-.037h-.87c-.832,0-1.4,0-1.7.037a4.766,4.766,0,0,0,.605-2.61v-13.578a2.752,2.752,0,0,0-.454-1.55,2.091,2.091,0,0,0-1.1-.833,17.624,17.624,0,0,0,4.614-2.421v18.381A4.765,4.765,0,0,0,552.751,1097.651Z" transform="translate(-520.228 -1076.509)" fill="#182c3f"/>
            <path id="Path_65" data-name="Path 65" d="M565.542,1085.936c0,4.2-.529,7.223-1.551,9.077a5.783,5.783,0,0,1-5.446,2.912,5.2,5.2,0,0,1-3.253-.984v-4.689c.793,2.156,1.967,3.215,3.517,3.215a3.025,3.025,0,0,0,2.193-.756,5.117,5.117,0,0,0,1.1-2.724,29.346,29.346,0,0,0,.34-4.009,4.242,4.242,0,0,1-3.4,1.512,3.824,3.824,0,0,1-3.291-1.626,7.394,7.394,0,0,1-1.209-4.426,7.636,7.636,0,0,1,1.588-5.105,5.181,5.181,0,0,1,4.084-1.816Q565.543,1076.518,565.542,1085.936Zm-3.063.227V1085.1a15.722,15.722,0,0,0-.53-4.5,1.987,1.987,0,0,0-1.967-1.626,2.064,2.064,0,0,0-1.854,1.058,5.5,5.5,0,0,0-.68,2.951,5.606,5.606,0,0,0,.756,3.1,2.213,2.213,0,0,0,2,1.172A2.864,2.864,0,0,0,562.479,1086.163Z" transform="translate(-519.783 -1076.518)" fill="#182c3f"/>
          </g>
        </g>
        <g id="Group_63" data-name="Group 63" transform="translate(0 0.334)">
          <g id="Group_62" data-name="Group 62">
            <path id="Path_66" data-name="Path 66" d="M481.513,1093.738l-.34,4.2h-7.337c-.832,0-1.4,0-1.7.038a4.765,4.765,0,0,0,.605-2.61v-15.7a4.625,4.625,0,0,0-.605-2.572h.3a.962.962,0,0,0,.3.037h8.472l.076,3.668a2.415,2.415,0,0,0-2.307-1.172H475.8v4.88c1.4,0,2.307,0,2.723-.038a3.31,3.31,0,0,0,1.74-.605c-.038.227-.038.833-.038,1.815s0,1.588.038,1.814a3.626,3.626,0,0,0-1.891-.6c-.416-.038-1.286-.038-2.572-.038v8.624h1.929C479.7,1095.478,480.946,1094.911,481.513,1093.738Zm8.283-7.035c.605.567,1.059.983,1.361,1.286.265.34.643.756,1.059,1.286a5.309,5.309,0,0,1,.908,1.7,6.458,6.458,0,0,1,.264,1.929,4.9,4.9,0,0,1-1.664,3.933,6.326,6.326,0,0,1-4.2,1.4,7.77,7.77,0,0,1-4.01-.984l-.037-4.084a4.905,4.905,0,0,0,4.084,2.572,2.72,2.72,0,0,0,1.929-.719,2.484,2.484,0,0,0,.756-1.816,5.205,5.205,0,0,0-.076-.756,2.531,2.531,0,0,0-.379-.794c-.189-.264-.3-.491-.416-.681a9.029,9.029,0,0,0-.681-.718c-.34-.3-.53-.53-.643-.644s-.416-.34-.832-.719a9.711,9.711,0,0,0-.794-.68,12.575,12.575,0,0,1-2.458-2.8,5.915,5.915,0,0,1-.87-3.215,4.969,4.969,0,0,1,1.665-3.97,5.856,5.856,0,0,1,3.97-1.4,8.139,8.139,0,0,1,3.934,1.021v4.084a4.533,4.533,0,0,0-3.971-2.609,2.965,2.965,0,0,0-1.74.53,2.049,2.049,0,0,0-.756,1.739c0,1.249.794,2.61,2.345,4.047C488.737,1085.833,489.154,1086.174,489.8,1086.7Zm12.481-9.606h2.307l.114,3.97a2.3,2.3,0,0,0-1.21-1.248,5.733,5.733,0,0,0-2-.3h-.416v15.846a4.765,4.765,0,0,0,.605,2.61c-.3-.038-.87-.038-1.7-.038h-.87c-.832,0-1.4,0-1.7.038a4.765,4.765,0,0,0,.605-2.61v-15.885h-.077a7.436,7.436,0,0,0-2.269.265,2.187,2.187,0,0,0-1.286,1.248l.113-3.895h2.345c1.135.037,2.043.037,2.724.037C500.2,1077.134,501.105,1077.134,502.278,1077.1Zm4.387,12.934v-11.12a2.612,2.612,0,0,0-.567-1.814c.416.037.946.037,1.512.037h2.231q5.9,0,5.9,7.262a9.112,9.112,0,0,1-1.4,5.484,4.765,4.765,0,0,1-4.124,1.967h-2.76a12.843,12.843,0,0,0-1.361.038A2.788,2.788,0,0,0,506.665,1090.031Zm5.824,4.615a5.341,5.341,0,0,0,2.723-.492v3.252a5.356,5.356,0,0,0-2.723-.491h-3.556a5.248,5.248,0,0,0-2.761.491v-3.252a5.234,5.234,0,0,0,2.761.492Zm-3.063-15.621v10.892h.793c1.778,0,2.686-1.815,2.686-5.407,0-3.669-.946-5.485-2.837-5.485Z" transform="translate(-472.134 -1076.832)" fill="#182c3f"/>
          </g>
        </g>
      </g>
      <g id="Group_65" data-name="Group 65" transform="translate(120.38 10.345)">
        <path id="Path_67" data-name="Path 67" d="M570.308,1086.244c.718.075,2.307.113,4.841.113s4.122-.037,4.841-.113v2.723c-.719-.075-2.307-.113-4.841-.113-2.5,0-4.123.037-4.841.113Z" transform="translate(-570.308 -1086.244)" fill="#182c3f"/>
      </g>
      <g id="Group_66" data-name="Group 66" transform="translate(0 10.345)">
        <path id="Path_68" data-name="Path 68" d="M457.127,1086.244c.718.075,2.307.113,4.84.113s4.122-.037,4.842-.113v2.723c-.719-.075-2.307-.113-4.842-.113-2.5,0-4.123.037-4.84.113Z" transform="translate(-457.127 -1086.244)" fill="#182c3f"/>
      </g>
    </g>
  </g>
</svg>
