<svg xmlns="http://www.w3.org/2000/svg" width="109.816" height="19.811" viewBox="0 0 109.816 19.811">
  <g id="EN" transform="translate(4.816 2.086)">
    <text id="English_" data-name="English " transform="translate(36 12)" fill="#54565a" font-size="14" font-family="Aileron-Bold, Aileron" font-weight="700"><tspan x="0" y="0">Portugues</tspan></text>
    <g id="Group_70" data-name="Group 70" transform="translate(-1149 -1186)">
      <path id="Path_69" data-name="Path 69" d="M1219.717,1107.811h-29.2a.521.521,0,0,1-.521-.521v-18.769a.522.522,0,0,1,.521-.521h29.2a.521.521,0,0,1,.521.521v18.769A.522.522,0,0,1,1219.717,1107.811Z" transform="translate(-45.816 95.914)" fill="#73af00"/>
      <path id="Path_70" data-name="Path 70" d="M1210.48,1094.979l-10.988,6.688a.521.521,0,0,0,0,.891l10.988,6.688a.521.521,0,0,0,.542,0l10.989-6.688a.522.522,0,0,0,0-.891l-10.989-6.688A.522.522,0,0,0,1210.48,1094.979Z" transform="translate(-51.449 91.707)" fill="#ffe15a"/>
      <ellipse id="Ellipse_1" data-name="Ellipse 1" cx="4.171" cy="4.171" rx="4.171" ry="4.171" transform="translate(1155.132 1189.649)" fill="#41479b"/>
      <g id="Group_69" data-name="Group 69" transform="translate(1155.275 1191.682)">
        <path id="Path_71" data-name="Path 71" d="M1218.847,1107.893a4.137,4.137,0,0,0-.449,1.067,10.81,10.81,0,0,1,7.909,2.585,4.149,4.149,0,0,0,.271-1.153A11.911,11.911,0,0,0,1218.847,1107.893Z" transform="translate(-1218.398 -1107.889)" fill="#f5f5f5"/>
        <path id="Path_72" data-name="Path 72" d="M1228.219,1116.956l.111.333.351,0a.047.047,0,0,1,.028.086l-.282.209.106.334a.047.047,0,0,1-.073.053l-.286-.2-.286.2a.047.047,0,0,1-.073-.053l.106-.334-.282-.209a.047.047,0,0,1,.028-.086l.351,0,.111-.333A.047.047,0,0,1,1228.219,1116.956Z" transform="translate(-1224.018 -1113.395)" fill="#f5f5f5"/>
        <path id="Path_73" data-name="Path 73" d="M1232.244,1119.191l.048.143h.151a.02.02,0,0,1,.012.037l-.121.09.045.144a.02.02,0,0,1-.031.023l-.123-.088-.123.088a.02.02,0,0,1-.031-.023l.046-.144-.122-.09a.02.02,0,0,1,.012-.037h.151l.048-.143A.02.02,0,0,1,1232.244,1119.191Z" transform="translate(-1226.679 -1114.768)" fill="#f5f5f5"/>
        <path id="Path_74" data-name="Path 74" d="M1227.241,1115.365l.048.143h.151a.02.02,0,0,1,.012.037l-.121.09.045.144a.02.02,0,0,1-.031.023l-.123-.088-.123.088a.02.02,0,0,1-.031-.023l.046-.144-.122-.09a.02.02,0,0,1,.012-.037h.151l.048-.143A.02.02,0,0,1,1227.241,1115.365Z" transform="translate(-1223.63 -1112.437)" fill="#f5f5f5"/>
        <path id="Path_75" data-name="Path 75" d="M1220.465,1114.921l.048.143h.151a.02.02,0,0,1,.012.037l-.121.09.046.144a.02.02,0,0,1-.031.023l-.123-.088-.123.088a.02.02,0,0,1-.031-.023l.046-.144-.121-.09a.02.02,0,0,1,.012-.037h.151l.048-.143A.021.021,0,0,1,1220.465,1114.921Z" transform="translate(-1219.501 -1112.166)" fill="#f5f5f5"/>
        <path id="Path_76" data-name="Path 76" d="M1226.134,1119.063l.048.143h.151a.02.02,0,0,1,.012.037l-.121.09.046.144a.02.02,0,0,1-.031.023l-.123-.088-.123.088a.02.02,0,0,1-.031-.023l.046-.144-.121-.09a.02.02,0,0,1,.012-.037h.151l.048-.143A.02.02,0,0,1,1226.134,1119.063Z" transform="translate(-1222.955 -1114.691)" fill="#f5f5f5"/>
        <path id="Path_77" data-name="Path 77" d="M1223.088,1114.668l.039.117h.124a.017.017,0,0,1,.01.03l-.1.073.037.118a.017.017,0,0,1-.026.019l-.1-.072-.1.072a.017.017,0,0,1-.025-.019l.037-.118-.1-.073a.017.017,0,0,1,.01-.03h.123l.039-.117A.017.017,0,0,1,1223.088,1114.668Z" transform="translate(-1221.128 -1112.014)" fill="#f5f5f5"/>
        <path id="Path_78" data-name="Path 78" d="M1232.507,1108.47l.049.147h.155a.021.021,0,0,1,.012.037l-.124.092.047.147a.021.021,0,0,1-.032.023l-.126-.09-.126.09a.021.021,0,0,1-.032-.023l.047-.147-.124-.092a.021.021,0,0,1,.012-.037h.154l.049-.147A.021.021,0,0,1,1232.507,1108.47Z" transform="translate(-1226.835 -1108.235)" fill="#f5f5f5"/>
        <path id="Path_79" data-name="Path 79" d="M1220.974,1112.833l.039.117h.124a.017.017,0,0,1,.01.03l-.1.073.037.118a.017.017,0,0,1-.026.018l-.1-.072-.1.072a.017.017,0,0,1-.026-.018l.037-.118-.1-.073a.017.017,0,0,1,.01-.03h.124l.039-.117A.016.016,0,0,1,1220.974,1112.833Z" transform="translate(-1219.84 -1110.895)" fill="#f5f5f5"/>
        <path id="Path_80" data-name="Path 80" d="M1222.333,1117.052l.059.178h.187a.025.025,0,0,1,.015.045l-.15.111.056.178a.025.025,0,0,1-.039.028l-.152-.109-.152.109a.025.025,0,0,1-.039-.028l.057-.178-.151-.111a.025.025,0,0,1,.015-.045h.187l.059-.178A.025.025,0,0,1,1222.333,1117.052Z" transform="translate(-1220.601 -1113.463)" fill="#f5f5f5"/>
        <path id="Path_81" data-name="Path 81" d="M1234.281,1119.29l.037.112h.117a.016.016,0,0,1,.01.029l-.095.07.036.112a.016.016,0,0,1-.025.018l-.1-.068-.1.068a.016.016,0,0,1-.024-.018l.035-.112-.094-.07a.016.016,0,0,1,.009-.029h.118l.037-.112A.016.016,0,0,1,1234.281,1119.29Z" transform="translate(-1227.955 -1114.831)" fill="#f5f5f5"/>
        <path id="Path_82" data-name="Path 82" d="M1235.246,1117.1l.048.143h.151a.02.02,0,0,1,.012.037l-.121.09.045.144a.02.02,0,0,1-.031.023l-.123-.088-.123.088a.02.02,0,0,1-.031-.023l.046-.144-.121-.09a.02.02,0,0,1,.012-.037h.151l.048-.143A.02.02,0,0,1,1235.246,1117.1Z" transform="translate(-1228.509 -1113.496)" fill="#f5f5f5"/>
      </g>
    </g>
  </g>
</svg>
