<svg id="ICON" xmlns="http://www.w3.org/2000/svg" width="108" height="108" viewBox="0 0 108 108">
  <path id="Oval" d="M54,0A54,54,0,1,1,0,54,54,54,0,0,1,54,0Z" fill="#f6f8f9"/>
  <g id="Group_56" data-name="Group 56" transform="translate(-1331.281 -870.59)">
    <g id="Group_55" data-name="Group 55" transform="translate(1349 890.075)">
      <path id="Path_37" data-name="Path 37" d="M1420.424,927.727a28.21,28.21,0,0,0-21.937-24.737v-3.552a4.752,4.752,0,0,0-1.147-9.364h-10.064a4.752,4.752,0,0,0-1.147,9.364V903a28.227,28.227,0,0,0-16.137,10.265c-.035,0-.07-.005-.106-.005h-9.961a1.4,1.4,0,0,0,0,2.8h8.164a28,28,0,0,0-2.48,5.372H1350.4a1.4,1.4,0,0,0,0,2.8h14.422a28.451,28.451,0,0,0-.694,5.373h-6.181a1.4,1.4,0,1,0,0,2.8h6.225a28.419,28.419,0,0,0,.873,5.373h-9.055a1.4,1.4,0,0,0,0,2.8h9.947a28.23,28.23,0,0,0,23.6,18.074q1.385.137,2.77.137a28.3,28.3,0,0,0,15.408-4.554,1.4,1.4,0,0,0-1.526-2.342,25.439,25.439,0,1,1,7.492-7.5,1.4,1.4,0,1,0,2.344,1.522A28.323,28.323,0,0,0,1420.424,927.727Zm-35.1-32.9a1.959,1.959,0,0,1,1.957-1.957h10.064a1.957,1.957,0,0,1,0,3.914h-10.064A1.959,1.959,0,0,1,1385.32,894.827Zm3.605,7.692v-2.94h6.767v2.935A28.5,28.5,0,0,0,1388.925,902.519Z" transform="translate(-1349 -890.075)" fill="#98ca3f"/>
      <path id="Path_38" data-name="Path 38" d="M1506.154,1038.492a1.4,1.4,0,1,0,.988.41A1.4,1.4,0,0,0,1506.154,1038.492Z" transform="translate(-1443.847 -980.453)" fill="#98ca3f"/>
      <path id="Path_39" data-name="Path 39" d="M1426.038,938.094a21.683,21.683,0,1,0,21.683,21.683A21.708,21.708,0,0,0,1426.038,938.094Zm0,40.57a18.887,18.887,0,1,1,18.887-18.887A18.908,18.908,0,0,1,1426.038,978.664Z" transform="translate(-1382.708 -919.316)" fill="#98ca3f"/>
      <path id="Path_40" data-name="Path 40" d="M1457.116,965.24l-6.923,6.923a4.33,4.33,0,0,0-3.837,0l-3.1-3.1a1.4,1.4,0,0,0-1.977,1.977l3.1,3.1a4.343,4.343,0,1,0,7.791,0l6.72-6.719h0l.2-.2a1.4,1.4,0,1,0-1.977-1.976Zm-8.841,12.366a1.548,1.548,0,1,1,1.548-1.548A1.55,1.55,0,0,1,1448.275,977.606Z" transform="translate(-1404.945 -935.597)" fill="#98ca3f"/>
      <path id="Path_41" data-name="Path 41" d="M1493.826,990.011h-1.3a1.4,1.4,0,0,0,0,2.8h1.3a1.4,1.4,0,0,0,0-2.8Z" transform="translate(-1435.552 -950.931)" fill="#98ca3f"/>
      <path id="Path_42" data-name="Path 42" d="M1420.705,989.924h-1.295a1.4,1.4,0,0,0,0,2.8h1.295a1.4,1.4,0,1,0,0-2.8Z" transform="translate(-1391.025 -950.878)" fill="#98ca3f"/>
      <path id="Path_43" data-name="Path 43" d="M1457.669,955.842a1.4,1.4,0,0,0,1.4-1.4V953.15a1.4,1.4,0,0,0-2.8,0v1.295A1.4,1.4,0,0,0,1457.669,955.842Z" transform="translate(-1414.323 -927.633)" fill="#98ca3f"/>
      <path id="Path_44" data-name="Path 44" d="M1457.583,1024.872a1.4,1.4,0,0,0-1.4,1.4v1.295a1.4,1.4,0,1,0,2.8,0v-1.295A1.4,1.4,0,0,0,1457.583,1024.872Z" transform="translate(-1414.27 -972.159)" fill="#98ca3f"/>
      <path id="Path_45" data-name="Path 45" d="M1350.4,1012.021a1.4,1.4,0,1,0,.988.41A1.409,1.409,0,0,0,1350.4,1012.021Z" transform="translate(-1349 -964.334)" fill="#98ca3f"/>
    </g>
  </g>
</svg>
