<svg id="ICON" xmlns="http://www.w3.org/2000/svg" width="108" height="108" viewBox="0 0 108 108">
  <circle id="Oval" cx="54" cy="54" r="54" fill="#f6f8f9"/>
  <g id="Group_13" data-name="Group 13" transform="translate(-1211.206 -613.38)">
    <path id="Path_24" data-name="Path 24" d="M1248.295,651.684a4.831,4.831,0,0,0,.265,2.8c.04.1.1.175.148.266-.7.925-1.293,1.872-1.871,2.794a16.224,16.224,0,0,1-5.44,6.031c-5.471,3.285-5.712,5.065-4.165,8.054l.233.448c.931,1.874,3.13,6.261,6.519,6.81a4.5,4.5,0,0,0,.708.058,5.627,5.627,0,0,0,3.958-1.909c3.7-3.7,6.551-4.995,9.679-5.355a1.139,1.139,0,0,0,.233.606c.032.041,3.162,4.015,1.11,6.752a18.835,18.835,0,0,0-7.6,9.211c-1.746,4.7-1.07,11.337,3.6,14.913a11.911,11.911,0,0,0,7.465,2.153c.269,0,.568-.032.848-.042a1.132,1.132,0,0,0,.192.042,1.171,1.171,0,0,0,.394-.072c.278-.017.535-.014.822-.041a27.364,27.364,0,0,0,4.213-.676,9.551,9.551,0,0,1,9.035-.529c.863,0,1.678-.05,2.4-.116a21.969,21.969,0,0,0,9.859-2.8,12.029,12.029,0,0,0,5.773-9.1c.017-.2.03-.4.036-.6v-.013a1.164,1.164,0,0,0-1.135-1.185,1.122,1.122,0,0,0-1.192,1.112c-.027.072-.3.654-2.127,1.66a5.437,5.437,0,0,1-5.084.007c-.545-.3-.9-.656-.949-.966a1.469,1.469,0,0,1,.1-.648,9.7,9.7,0,0,1,2.431-3.376c.4-.425.8-.846,1.173-1.281a39.181,39.181,0,0,0,3.349-4.45,21.38,21.38,0,0,0,3.432-13.1c-1.081-14.061-16.862-19.433-20.918-20.586a6.914,6.914,0,0,0-.117-4.2,1.163,1.163,0,0,0-.916-.719c-3.615-.517-6.027.233-7.626,1.343a9.71,9.71,0,0,0-6.376-2.969,10.611,10.611,0,0,0-6.751,2.269l-17.577-8.611a1.742,1.742,0,0,0-1.965,2.835Zm12.581,19.867a16.632,16.632,0,0,0,9.268-3.558,13.591,13.591,0,0,1-.522,2.03,12.79,12.79,0,0,1-6.939,7.349A9.99,9.99,0,0,0,1260.876,671.552Zm8.2,30.712a25.7,25.7,0,0,1-3.9.626c-.156.014-.3.019-.452.029-1.448-2.114-6.17-10.118.28-16.566a1.164,1.164,0,0,0-1.646-1.646c-6.605,6.605-3.368,14.626-1.33,18.238a8.938,8.938,0,0,1-4.953-1.63c-3.725-2.858-4.241-8.448-2.829-12.256a16.591,16.591,0,0,1,6.876-8.2,20.7,20.7,0,0,1,2.321-1.266,15.094,15.094,0,0,0,8.382-8.806c2.354-6.709-.245-14.248-1.46-17.157a13.131,13.131,0,0,0,1.595-.723,20.487,20.487,0,0,1,10.128,10.322,19.9,19.9,0,0,1,1.769,9.6c-.458,5.07-4,7.65-8.107,10.639a20.376,20.376,0,0,0-5.564,5.588,11.605,11.605,0,0,0-1.152,8.517,7.284,7.284,0,0,0,2.055,4.148A20.4,20.4,0,0,1,1269.071,702.264Zm25.31-32.943A19.066,19.066,0,0,1,1291.3,681a36.948,36.948,0,0,1-3.152,4.19c-.341.4-.713.792-1.086,1.184a11.562,11.562,0,0,0-2.953,4.254,3.65,3.65,0,0,0-.19,1.737,3.812,3.812,0,0,0,2.136,2.647,7.817,7.817,0,0,0,7.312-.014l.116-.065a10.1,10.1,0,0,1-3.83,4.183,14.528,14.528,0,0,1-4.031,1.679,1.145,1.145,0,0,0-.788-.1,5.348,5.348,0,0,1-4.41-.931c-1.475-1.382-1.872-4.219-1.147-8.2a1.164,1.164,0,1,0-2.291-.417c-.886,4.869-.264,8.342,1.846,10.32.082.076.167.136.25.206a10.73,10.73,0,0,1-6.089-1.346,4.622,4.622,0,0,1-1.684-3.169,9.429,9.429,0,0,1,.839-6.867,18.276,18.276,0,0,1,4.958-4.937c4.179-3.043,8.5-6.19,9.057-12.31a22,22,0,0,0-1.964-10.759,23.16,23.16,0,0,0-10.119-10.919,7.244,7.244,0,0,0,.6-.7C1277.286,651.382,1293.38,656.3,1294.381,669.321Zm-27.963-19.644c.037-.187.96-4.388,7.245-3.822a4.408,4.408,0,0,1-.366,2.691c-.732,1.462-2.363,2.561-4.849,3.275a1.163,1.163,0,0,0-.721,1.64,29.46,29.46,0,0,1,2.7,10.967,13.774,13.774,0,0,1-9.809,4.8c-4.609,0-8.5,1.03-13.628,6.162a3.1,3.1,0,0,1-2.643,1.2c-2.212-.359-4.095-4.133-4.805-5.553l-.244-.478c-.867-1.672-1.19-2.3,3.294-4.988a18.337,18.337,0,0,0,6.216-6.792c.466-.745.931-1.454,1.42-2.145a11.039,11.039,0,0,0,4.141,2.039,1.46,1.46,0,0,0,.186.053v-.011a1.482,1.482,0,0,0,.233.036,1.164,1.164,0,0,0,.843-1.967,6.844,6.844,0,0,1-.212-.8,3.312,3.312,0,0,1,.189-2.212c1.147-2.42,4.145-3.466,9.239-3.187.107,0,.212.009.319.018A1.165,1.165,0,0,0,1266.418,649.677Zm-5.8-5.343a7.432,7.432,0,0,1,4.824,2.249,7.8,7.8,0,0,0-.972,1.651c-2.584-.124-8.724-.169-10.956,4.54a5.545,5.545,0,0,0-.492,2.927,4.329,4.329,0,0,1-2.4-2.356c-.511-1.755,1.17-3.911,2.669-5.411,2.4-2.4,4.773-3.609,7.06-3.609Zm-8.566,1.581c-.134.128-.269.243-.4.377a15.151,15.151,0,0,0-2.426,3.059l-10.427-9.93Z" transform="translate(0 0)" fill="#98ca3f"/>
    <path id="Path_25" data-name="Path 25" d="M1253.568,720.175a1.164,1.164,0,0,0-1.987-.823,1.862,1.862,0,0,0-.513,2c.477,1.153,2,1.153,2.5,1.153a1.164,1.164,0,1,0,0-2.328Z" transform="translate(-10.41 -50.941)" fill="#98ca3f"/>
    <path id="Path_26" data-name="Path 26" d="M1297.62,686.217a5.854,5.854,0,0,0-3.958,2.677,4.592,4.592,0,0,0-.349,3.476,1.157,1.157,0,0,0,.349.513,2.871,2.871,0,0,0,1.833.607,3.983,3.983,0,0,0,1.777-.447,1.169,1.169,0,0,0-1.055-2.086,1.981,1.981,0,0,1-.769.208,2.2,2.2,0,0,1,.264-1.178,3.715,3.715,0,0,1,2.473-1.513,1.164,1.164,0,1,0-.564-2.259Z" transform="translate(-36.119 -30.92)" fill="#98ca3f"/>
    <path id="Path_27" data-name="Path 27" d="M1336.522,720.387a1.16,1.16,0,0,0,.6-.166c.27-.162,6.578-4.1,2.833-15.335a1.165,1.165,0,0,0-2.212.735c3.118,9.351-1.6,12.467-1.83,12.607a1.164,1.164,0,0,0,.61,2.158Z" transform="translate(-61.873 -41.841)" fill="#98ca3f"/>
  </g>
</svg>
