<svg xmlns="http://www.w3.org/2000/svg" width="368.269" height="231.047" viewBox="0 0 368.269 231.047">
  <g id="Group_12" data-name="Group 12" transform="translate(-1129.15 182.432)">
    <g id="Group_1" data-name="Group 1" transform="translate(1129.15 -81.389)">
      <path id="Path_1" data-name="Path 1" d="M1168.608,49.009c4.59,3.6,6.818,8.962,6.818,15.68a28.968,28.968,0,0,1-7.706,19.914,37.6,37.6,0,0,1-19.047,11.624c-.883.228-2.355.459-4.267.816v28.076c0,4.779.882,8.278,2.5,10.394-1.324.2-3.678.811-7.056,1.731q-1.763.48-3.522.97c-3.52.98-5.861,1.66-7.178,2.19a24.793,24.793,0,0,0,2.635-11.81V62.286c0-4.33-.879-7.814-2.635-10.142a51.8,51.8,0,0,0,5.272-1.359c2.2-.619,4.693-1.31,7.632-2.249,2.939-.789,5-1.323,6.177-1.628C1157.212,44.592,1164.018,45.413,1168.608,49.009ZM1159.291,79.7a20.239,20.239,0,0,0,3.99-12c0-4.032-1.183-7.344-3.694-9.73-2.511-2.235-6.054-2.867-10.472-1.733q-1.1.284-2.65.687a16.3,16.3,0,0,1-2.059.691V87.783c1.765-.318,3.089-.511,3.973-.74A18.814,18.814,0,0,0,1159.291,79.7Z" transform="translate(-1129.15 -25.938)" fill="#fff"/>
      <path id="Path_2" data-name="Path 2" d="M1244.106,129.141c0,4.779.894,8.352,2.534,10.6-1.342.085-3.728.5-7.154,1.14q-1.786.332-3.573.674c-3.572.685-5.949,1.167-7.286,1.588a23.2,23.2,0,0,0,2.675-11.589V92.777c0-4.331-.893-7.888-2.675-10.364,2.08-.273,4.756-.808,8.179-1.459l.149-.028,1.489-.281.149-.028c3.425-.641,6.108-1.117,8.047-1.6a23.2,23.2,0,0,0-2.534,11.349Z" transform="translate(-1175.969 -41.66)" fill="#fff"/>
      <path id="Path_3" data-name="Path 3" d="M1316.264,90.77a12.014,12.014,0,0,0,6.013-6.409q-.752,8.956-1.5,17.913-21.649,2.055-43.172,5.54v-7.168q14.416-37.43,28.9-74.219-8.479.992-16.938,2.2c-4.791.687-8.078,3.746-9.722,9.083q.075-9.122.149-18.243,20.325-3.216,40.781-5.157V21.63q-14.358,36.458-28.663,73.545,7.038-.98,14.092-1.808A31.186,31.186,0,0,0,1316.264,90.77Z" transform="translate(-1199.019 -11.209)" fill="#fff"/>
      <path id="Path_4" data-name="Path 4" d="M1414.8,84.976a10.741,10.741,0,0,0,6.033-5.931l-1.509,17.793q-21.721.333-43.4,2.095V91.765Q1390.444,55.489,1405,19.855q-8.519.315-17.03.851c-4.82.3-8.131,3.1-9.787,8.305q.075-9.115.15-18.231,20.469-1.589,40.993-1.9v7.318q-14.405,35.316-28.8,71.26,7.081-.418,14.167-.684A29.848,29.848,0,0,0,1414.8,84.976Z" transform="translate(-1245.294 -8.651)" fill="#fff"/>
      <path id="Path_5" data-name="Path 5" d="M1507.668,85.4a9.884,9.884,0,0,0,6.028-5.352q-.754,8.767-1.507,17.536-15.595-.871-31.212-1c-3.621-.03-6.034-.024-7.392.129,1.81-2.842,2.715-6.423,2.715-11.053V19.352a20.162,20.162,0,0,0-2.715-10.9l1.206,0a5.79,5.79,0,0,0,1.509.15q18.027.025,36.039,1.034.075,7.7.151,15.39c-1.657-3.228-4.973-5.056-9.646-5.251q-6.784-.283-13.571-.426V40.106c5.882.127,9.652.273,11.611.2a14.372,14.372,0,0,0,7.537-2.2,60.9,60.9,0,0,0-.3,7.3,63.031,63.031,0,0,0,.3,7.482,16.187,16.187,0,0,0-8.14-2.9c-1.81-.215-5.428-.354-11.009-.473V86.252q4.148.087,8.294.227A28.916,28.916,0,0,0,1507.668,85.4Z" transform="translate(-1291.258 -8.45)" fill="#fff"/>
      <path id="Path_6" data-name="Path 6" d="M1602.605,70.873a100.384,100.384,0,0,1,5.544,13.881,117.955,117.955,0,0,0,4.791,13.072c1.8,4.144,3.592,6.8,5.535,7.847q-8.523-1.311-17.07-2.4a35.592,35.592,0,0,1-4.65-10.73c-1.5-4.809-2.7-9.13-3.6-13.265a36.643,36.643,0,0,0-4.655-11.567c-2.253-3.676-4.958-5.9-8.416-6.672V90.014c0,4.779.9,8.6,2.555,11.3-1.353-.282-3.757-.516-7.217-.818q-1.805-.157-3.611-.3c-3.611-.294-6.02-.464-7.375-.411,1.807-2.71,2.71-6.225,2.71-10.855V22.616a21.247,21.247,0,0,0-2.71-11.1c2.108.3,4.818.5,8.279.784l.15.012q5.567.464,11.128,1.021c9.168.921,16.216,3.9,20.861,8.849a24.527,24.527,0,0,1,6.89,17.228c0,5.825-1.646,10.81-4.942,14.693s-7.193,6.068-11.846,6.418Q1599.008,63.686,1602.605,70.873Zm-7.35-21.515a13.289,13.289,0,0,0,4.2-10.244,16.521,16.521,0,0,0-3.75-10.759,15.345,15.345,0,0,0-10.812-5.52q-1.127-.115-2.7-.269a14.635,14.635,0,0,1-2.1-.052V52.381q2.03.191,4.058.395C1588.8,53.244,1592.4,52.159,1595.256,49.358Z" transform="translate(-1334.018 -9.894)" fill="#fff"/>
      <path id="Path_7" data-name="Path 7" d="M1693.323,104.656c0,4.779.894,8.679,2.53,11.531-1.339-.405-3.72-.86-7.148-1.48q-1.788-.323-3.578-.636c-3.58-.625-5.969-1.016-7.313-1.086,1.792-2.545,2.688-5.977,2.688-10.607V36.072a22.762,22.762,0,0,0-2.687-11.346c2.09.491,4.778.939,8.208,1.543l.149.026,1.49.265.149.027c3.429.614,6.108,1.12,8.042,1.342-1.636,2.374-2.53,5.792-2.53,10.421Z" transform="translate(-1387.379 -16.11)" fill="#fff"/>
      <path id="Path_8" data-name="Path 8" d="M1775.521,137.876c-1.024-.3-2.487-.72-4.539-1.45-2.2-.621-3.812-1.066-4.84-1.349s-2.5-.683-4.553-1.232c-2.058-.4-3.677-.822-4.707-1.089a5.125,5.125,0,0,0,1.766-4.318,25.838,25.838,0,0,0-.442-4.148q-.883-5.233-1.766-10.465l-.147-.635q-8.833-2.28-17.713-4.311l-.148.564q-.961,4.783-1.924,9.569a20.636,20.636,0,0,0-.444,3.783,6.834,6.834,0,0,0,2.369,5.465c-1.036-.237-2.664-.606-4.59-1.181-2.075-.459-3.558-.777-4.6-1s-2.671-.568-4.6-.966c-2.079-.279-3.565-.576-4.606-.783,2.23-1.647,4.012-4.716,5.052-9.279q7.424-32.141,14.821-64.108a28.5,28.5,0,0,0,.887-6.067,7.6,7.6,0,0,0-1.331-4.639c1.775.558,4.437,1.178,7.832,2l.148.036,1.033.252.148.037c3.394.833,5.9,1.473,7.812,1.818-.884.817-1.326,2.049-1.325,3.99a58.039,58.039,0,0,0,.589,5.826q7.8,36.728,15.571,73.649A33.377,33.377,0,0,0,1775.521,137.876Zm-28.073-74.245c-.148,1.012-2.36,12.707-6.945,35.237q6.878,1.6,13.728,3.339C1749.664,77,1747.447,64.082,1747.448,63.631Z" transform="translate(-1407.252 -23.41)" fill="#fff"/>
    </g>
    <g id="Group_3" data-name="Group 3" transform="translate(1151.934 -182.432)">
      <path id="Path_9" data-name="Path 9" d="M1244.8-38.981c0,4.332.743,7.619,2.38,9.845a65.649,65.649,0,0,0-6.69,1.173q-1.709.349-3.415.71a67.907,67.907,0,0,0-6.67,1.606,21.869,21.869,0,0,0,2.369-10.832v-90.032c0-4.331-.741-7.455-2.369-9.627,1.925-.284,4.443-.841,7.56-1.494l.148-.031q.668-.141,1.336-.278l.149-.031c3.118-.643,5.647-1.136,7.582-1.654-1.637,2.852-2.38,6.284-2.38,10.615Z" transform="translate(-1199.592 162.286)" fill="#fff"/>
      <path id="Path_10" data-name="Path 10" d="M1377.636-89.666q-.679,8.313-1.357,16.627-14.624.563-29.213,1.95a65.864,65.864,0,0,0-6.762.837c1.652-2.717,2.4-6.228,2.4-10.559v-61.976c0-4.331-.752-7.541-2.4-9.9,1.952-.062,4.506-.329,7.663-.624l.151-.014,1.353-.124.15-.014c3.159-.284,5.717-.487,7.674-.783-1.656,2.664-2.408,6.011-2.408,10.342v62.424q3.837-.306,7.678-.556C1370.4-82.541,1375.375-84.95,1377.636-89.666Z" transform="translate(-1251.314 169.167)" fill="#fff"/>
      <path id="Path_11" data-name="Path 11" d="M1472.439-73.094c-1.053-.079-2.559-.19-4.517-.47-1.958-.13-3.465-.219-4.368-.272-1.055-.061-2.562-.146-4.521-.242-1.96.053-3.467-.011-4.522-.054a5.8,5.8,0,0,0,1.809-4.4,19.34,19.34,0,0,0-.452-3.753q-.9-4.743-1.809-9.483l-.151-.6q-8.443-.333-16.891-.39l-.151.6q-.905,4.7-1.81,9.4a19.119,19.119,0,0,0-.453,3.583,5.417,5.417,0,0,0,2.263,4.639c-1.056-.007-2.414-.014-4.375-.16-1.961,0-3.319.016-4.375.027-.905.01-2.263.024-4.223.06-1.961.186-3.469.224-4.525.253a19.072,19.072,0,0,0,4.827-9.816q7.089-31.413,14.18-62.633a56.1,56.1,0,0,0,.754-6.116,6.8,6.8,0,0,0-1.206-4.044c1.659.164,4.224.193,7.391.265l.151,0,1.055.025.151,0c3.168.08,5.731.175,7.389.091a6.54,6.54,0,0,0-1.206,3.986c0,.448.151,2.394.6,5.548q7.463,32.619,14.919,65.454C1469.578-77.634,1470.933-74.85,1472.439-73.094Zm-26.976-63.75c0,.452-2.112,11.888-6.486,34.389q6.486.068,12.971.3C1447.576-124.709,1445.463-136.243,1445.463-136.843Z" transform="translate(-1288.526 170.45)" fill="#fff"/>
      <path id="Path_12" data-name="Path 12" d="M1538.84-142.7v62.573c0,4.332.751,7.854,2.4,10.6a66.337,66.337,0,0,0-6.754-.944q-1.727-.191-3.454-.372a64.763,64.763,0,0,0-6.764-.511c1.654-2.388,2.406-5.749,2.406-10.08v-62.723l-.3-.029a27.738,27.738,0,0,0-9.026.266,7.8,7.8,0,0,0-5.118,4.557q.226-7.676.452-15.351c1.656.115,4.668.322,9.332.724,4.512.54,8.119.91,10.823,1.2,2.553.276,6.156.68,10.8,1.13,4.646.6,7.64,1.043,9.137,1.261q.224,7.874.449,15.747a11.1,11.1,0,0,0-4.79-5.614,23.734,23.734,0,0,0-7.944-2.232Q1539.666-142.6,1538.84-142.7Z" transform="translate(-1332.231 169.387)" fill="#fff"/>
      <path id="Path_13" data-name="Path 13" d="M1638.349-77.28l-1.329,15.45q-19.874-4.481-40-7.457v-6.386q13.455-29.158,26.816-57.642-7.792-1.555-15.619-2.88c-4.473-.756-7.461,1.059-9.1,5.208q.075-8.007.15-16.013,18.976,2.889,37.755,7.12v6.386q-13.225,28.238-26.565,57.143,6.556,1.138,13.087,2.438C1631.26-72.372,1636.133-73.381,1638.349-77.28Z" transform="translate(-1372.139 165.756)" fill="#fff"/>
      <path id="Path_14" data-name="Path 14" d="M1702.714-57.9a20.905,20.905,0,0,0,2.342,10.433c-1.171-.464-3.366-1.069-6.593-1.917q-1.687-.443-3.377-.875c-3.232-.826-5.442-1.362-6.621-1.507,1.62-2.019,2.356-5.1,2.356-9.215v-58.892a19.865,19.865,0,0,0-2.356-10.226c1.915.606,4.418,1.222,7.5,2.016l.147.038,1.321.342.147.038c3.082.8,5.572,1.481,7.474,1.864-1.61,1.969-2.342,4.894-2.342,9.008Z" transform="translate(-1415.176 157.803)" fill="#fff"/>
      <g id="Group_2" data-name="Group 2">
        <path id="Path_15" data-name="Path 15" d="M1242.747-174.935c-7.8-6.807-18.519-9.12-31.766-6.358-12.871,2.692-22.646,8.955-29.14,18.07-6.5,9.145-9.647,18.726-9.649,29.1,0,8.393,1.92,15.294,5.722,20.584,4,5.464,9.092,7.431,15.157,5.939,5-1.228,8.6-3.968,10.684-8.237l.32-.654q-4.556-5.449-9.1-10.816v4.146c0,3.539-.562,7.884-3.233,8.546-2.156.536-4.055-1.106-5.8-5.013-1.711-4.038-2.577-9.254-2.577-15.515a53.241,53.241,0,0,1,2.43-15.79,36.254,36.254,0,0,1,9.082-13.914,31.7,31.7,0,0,1,16.4-8.56c9.56-1.986,16.962-.112,22.585,5.459,5.656,5.612,8.414,13.849,8.413,25.041,0,11.5-2.811,20.842-8.577,28.722-5.546,7.588-13.3,12.32-23.015,14.35-7.178,1.5-13.266,1.955-18.114,1.219a23.453,23.453,0,0,1-5.781-1.657q-1.249,2.858-2.5,5.724a20.039,20.039,0,0,0,4.729,2.165c5.877,1.865,13.009,1.863,21.219.137,13.539-2.842,24.455-8.667,32.351-17.849,8.054-9.191,12.151-20.593,12.15-34.173C1254.741-157.735,1250.694-168.146,1242.747-174.935Z" transform="translate(-1172.192 182.432)" fill="#fff"/>
      </g>
      <path id="Path_16" data-name="Path 16" d="M1269.413-132.016c-.889,8.077-2.679,10.122-10.561,12.525,7.882-.619,9.672.906,10.561,8.648.893-8.05,2.67-10.192,10.589-12.305C1272.084-122.819,1270.306-124.247,1269.413-132.016Z" transform="translate(-1212.979 158.704)" fill="#fff"/>
    </g>
    <g id="Group_11" data-name="Group 11" transform="translate(1236.659 24.332)">
      <g id="Group_8" data-name="Group 8" transform="translate(17.828)">
        <g id="Group_5" data-name="Group 5" transform="translate(59.074)">
          <g id="Group_4" data-name="Group 4">
            <path id="Path_17" data-name="Path 17" d="M1488.632,226.587l-.38,5.154h-10.73v-1.9a10.159,10.159,0,0,1,1.225-4.6,20.665,20.665,0,0,1,2.661-4.013,24.089,24.089,0,0,0,2.661-3.675,7.411,7.411,0,0,0,1.225-3.718,2.786,2.786,0,0,0-.76-2.154,2.754,2.754,0,0,0-1.943-.718,4.805,4.805,0,0,0-2.619.845,4.576,4.576,0,0,0-1.9,2.281v-4.774a10.984,10.984,0,0,1,5.111-1.14,5.449,5.449,0,0,1,4.014,1.521,5.158,5.158,0,0,1,1.52,3.8,9.2,9.2,0,0,1-1.182,4.266,20.064,20.064,0,0,1-2.7,3.929,34.133,34.133,0,0,0-2.746,3.633,7.477,7.477,0,0,0-1.436,3.338h3.3C1486.435,228.657,1488,227.981,1488.632,226.587Z" transform="translate(-1477.522 -208.169)" fill="#fff"/>
            <path id="Path_18" data-name="Path 18" d="M1517.891,220.166c0,7.942-2.281,11.913-6.8,11.913s-6.759-3.971-6.759-11.955,2.239-11.955,6.759-11.955S1517.891,212.182,1517.891,220.166Zm-8.491-8.449a6.234,6.234,0,0,0-1.056,2.45,25.2,25.2,0,0,0-.465,2.957,22.98,22.98,0,0,0-.169,3,23.959,23.959,0,0,0,.634,6.083l4.858-13.9a2.292,2.292,0,0,0-2.07-1.52A2.077,2.077,0,0,0,1509.4,211.717Zm3.464,16.813a5.754,5.754,0,0,0,1.014-2.408,23.89,23.89,0,0,0,.465-2.957q.127-1.457.126-3.042a25.535,25.535,0,0,0-.634-6.21l-4.858,13.94a2.471,2.471,0,0,0,2.154,1.606A2.075,2.075,0,0,0,1512.864,228.53Z" transform="translate(-1490.14 -208.169)" fill="#fff"/>
            <path id="Path_19" data-name="Path 19" d="M1540.963,231.933c-.338-.042-.972-.042-1.9-.042h-.971c-.929,0-1.563,0-1.9.042a5.32,5.32,0,0,0,.676-2.915V213.853a3.078,3.078,0,0,0-.507-1.731,2.335,2.335,0,0,0-1.225-.93,19.711,19.711,0,0,0,5.153-2.7v20.53A5.319,5.319,0,0,0,1540.963,231.933Z" transform="translate(-1504.637 -208.319)" fill="#fff"/>
            <path id="Path_20" data-name="Path 20" d="M1563.146,218.688c0,4.689-.591,8.068-1.732,10.138a6.459,6.459,0,0,1-6.083,3.253,5.816,5.816,0,0,1-3.634-1.1v-5.238c.887,2.408,2.2,3.591,3.929,3.591a3.379,3.379,0,0,0,2.45-.844,5.724,5.724,0,0,0,1.225-3.042,33.013,33.013,0,0,0,.38-4.478,4.738,4.738,0,0,1-3.8,1.689,4.269,4.269,0,0,1-3.675-1.816,8.261,8.261,0,0,1-1.351-4.943,8.536,8.536,0,0,1,1.774-5.7,5.786,5.786,0,0,1,4.563-2.027Q1563.145,208.169,1563.146,218.688Zm-3.422.254v-1.183a17.552,17.552,0,0,0-.592-5.027,2.22,2.22,0,0,0-2.2-1.817,2.306,2.306,0,0,0-2.07,1.183,6.138,6.138,0,0,0-.76,3.295,6.266,6.266,0,0,0,.845,3.464,2.473,2.473,0,0,0,2.239,1.31A3.2,3.2,0,0,0,1559.724,218.941Z" transform="translate(-1512.035 -208.169)" fill="#fff"/>
          </g>
        </g>
        <g id="Group_7" data-name="Group 7" transform="translate(0 0.373)">
          <g id="Group_6" data-name="Group 6">
            <path id="Path_21" data-name="Path 21" d="M1376.4,227.756l-.38,4.689h-8.2c-.929,0-1.563,0-1.9.042a5.32,5.32,0,0,0,.675-2.914V212.041a5.168,5.168,0,0,0-.675-2.872h.338a1.047,1.047,0,0,0,.338.042h9.463l.085,4.1a2.7,2.7,0,0,0-2.577-1.31h-3.549v5.45c1.563,0,2.577,0,3.042-.042a3.7,3.7,0,0,0,1.943-.675c-.042.253-.042.93-.042,2.027s0,1.774.042,2.027a4.044,4.044,0,0,0-2.112-.675c-.465-.042-1.436-.042-2.873-.042V229.7h2.155C1374.374,229.7,1375.768,229.066,1376.4,227.756Zm9.252-7.858c.675.634,1.182,1.1,1.521,1.437.3.38.718.845,1.183,1.437a5.923,5.923,0,0,1,1.014,1.9,7.179,7.179,0,0,1,.3,2.154,5.466,5.466,0,0,1-1.859,4.394,7.063,7.063,0,0,1-4.688,1.563,8.681,8.681,0,0,1-4.478-1.1l-.042-4.562c1.268,1.9,2.789,2.873,4.563,2.873a3.033,3.033,0,0,0,2.155-.8,2.773,2.773,0,0,0,.845-2.027,5.629,5.629,0,0,0-.085-.845,2.822,2.822,0,0,0-.422-.887c-.211-.3-.338-.549-.465-.76a10.1,10.1,0,0,0-.761-.8c-.38-.338-.591-.591-.718-.718s-.465-.38-.93-.8a11.087,11.087,0,0,0-.887-.76,14.036,14.036,0,0,1-2.746-3.127,6.611,6.611,0,0,1-.971-3.591,5.553,5.553,0,0,1,1.859-4.435,6.543,6.543,0,0,1,4.435-1.563,9.1,9.1,0,0,1,4.394,1.14v4.562q-1.711-2.914-4.436-2.914a3.309,3.309,0,0,0-1.943.591,2.29,2.29,0,0,0-.844,1.943c0,1.394.887,2.915,2.619,4.52C1384.47,218.927,1384.935,219.307,1385.653,219.9Zm13.94-10.729h2.577l.126,4.435a2.565,2.565,0,0,0-1.352-1.394,6.385,6.385,0,0,0-2.239-.338h-.465v17.7a5.315,5.315,0,0,0,.676,2.914c-.338-.042-.972-.042-1.9-.042h-.972c-.929,0-1.563,0-1.9.042a5.315,5.315,0,0,0,.676-2.914V211.83h-.085a8.324,8.324,0,0,0-2.534.3,2.446,2.446,0,0,0-1.436,1.394l.126-4.351h2.619c1.267.042,2.281.042,3.042.042C1397.269,209.211,1398.284,209.211,1399.593,209.169Zm4.9,14.448V211.2a2.915,2.915,0,0,0-.634-2.027c.465.042,1.056.042,1.69.042h2.493q6.59,0,6.59,8.111a10.18,10.18,0,0,1-1.563,6.125,5.324,5.324,0,0,1-4.6,2.2h-3.083a14.509,14.509,0,0,0-1.521.042A3.108,3.108,0,0,0,1404.493,223.616ZM1411,228.77a5.973,5.973,0,0,0,3.042-.549v3.633A5.973,5.973,0,0,0,1411,231.3h-3.971a5.845,5.845,0,0,0-3.084.549v-3.633a5.845,5.845,0,0,0,3.084.549Zm-3.422-17.447v12.166h.887c1.985,0,3-2.027,3-6.04,0-4.1-1.056-6.125-3.168-6.125Z" transform="translate(-1365.925 -208.873)" fill="#fff"/>
          </g>
        </g>
      </g>
      <g id="Group_9" data-name="Group 9" transform="translate(134.455 11.554)">
        <path id="Path_22" data-name="Path 22" d="M1586.246,229.995c.8.085,2.577.126,5.407.126s4.6-.042,5.407-.126v3.042c-.8-.084-2.577-.126-5.407-.126-2.789,0-4.6.042-5.407.126Z" transform="translate(-1586.246 -229.995)" fill="#fff"/>
      </g>
      <g id="Group_10" data-name="Group 10" transform="translate(0 11.554)">
        <path id="Path_23" data-name="Path 23" d="M1332.246,229.995c.8.085,2.577.126,5.407.126s4.6-.042,5.407-.126v3.042c-.8-.084-2.577-.126-5.407-.126-2.789,0-4.6.042-5.407.126Z" transform="translate(-1332.246 -229.995)" fill="#fff"/>
      </g>
    </g>
  </g>
</svg>
