<svg id="SOCIAL" xmlns="http://www.w3.org/2000/svg" width="89" height="24" viewBox="0 0 89 24">
  <g id="FB">
    <circle id="Oval_3" data-name="Oval 3" cx="12" cy="12" r="12" fill="#51545e"/>
  </g>
  <g id="TT" transform="translate(32)">
    <circle id="Oval_3-2" data-name="Oval 3" cx="12" cy="12" r="12" transform="translate(0)" fill="#51545e"/>
  </g>
  <g id="DB" transform="translate(65)">
    <circle id="Oval_3-3" data-name="Oval 3" cx="12" cy="12" r="12" transform="translate(0)" fill="#51545e"/>
  </g>
  <g id="instagram" transform="translate(5.49 5.49)">
    <g id="Group_72" data-name="Group 72">
      <g id="Group_71" data-name="Group 71">
        <path id="Path_83" data-name="Path 83" d="M8.951,0H4.069A4.069,4.069,0,0,0,0,4.069V8.951A4.069,4.069,0,0,0,4.069,13.02H8.951A4.069,4.069,0,0,0,13.02,8.951V4.069A4.069,4.069,0,0,0,8.951,0ZM11.8,8.951A2.851,2.851,0,0,1,8.951,11.8H4.069A2.851,2.851,0,0,1,1.221,8.951V4.069A2.851,2.851,0,0,1,4.069,1.221H8.951A2.851,2.851,0,0,1,11.8,4.069Z" fill="#fff"/>
      </g>
    </g>
    <g id="Group_74" data-name="Group 74" transform="translate(3.255 3.255)">
      <g id="Group_73" data-name="Group 73">
        <path id="Path_84" data-name="Path 84" d="M131.255,128a3.255,3.255,0,1,0,3.255,3.255A3.255,3.255,0,0,0,131.255,128Zm0,5.289a2.034,2.034,0,1,1,2.034-2.034A2.037,2.037,0,0,1,131.255,133.289Z" transform="translate(-128 -128)" fill="#fff"/>
      </g>
    </g>
    <g id="Group_76" data-name="Group 76" transform="translate(9.575 2.577)">
      <g id="Group_75" data-name="Group 75">
        <circle id="Ellipse_2" data-name="Ellipse 2" cx="0.434" cy="0.434" r="0.434" fill="#fff"/>
      </g>
    </g>
  </g>
  <g id="facebook-logo" transform="translate(17.881 4.613)">
    <path id="Path_85" data-name="Path 85" d="M29.828,0,27.9,0a3.392,3.392,0,0,0-3.573,3.666v1.69H22.381a.3.3,0,0,0-.3.3V8.109a.3.3,0,0,0,.3.3h1.942v6.18a.3.3,0,0,0,.3.3h2.534a.3.3,0,0,0,.3-.3V8.413h2.271a.3.3,0,0,0,.3-.3V5.66a.3.3,0,0,0-.3-.3H27.465V3.923c0-.689.164-1.038,1.061-1.038h1.3a.3.3,0,0,0,.3-.3V.307A.3.3,0,0,0,29.828,0Z" fill="#fff"/>
  </g>
  <g id="twitter-logo-silhouette" transform="translate(70.678 -50.828)">
    <g id="Group_77" data-name="Group 77" transform="translate(0.001 57.441)">
      <path id="Path_86" data-name="Path 86" d="M14.642,58.848a6,6,0,0,1-1.725.473,3.016,3.016,0,0,0,1.32-1.661,6.055,6.055,0,0,1-1.908.729,3.006,3.006,0,0,0-5.118,2.738,8.527,8.527,0,0,1-6.19-3.138A3.007,3.007,0,0,0,1.951,62a3,3,0,0,1-1.36-.377v.038A3.006,3.006,0,0,0,3,64.6a3.042,3.042,0,0,1-.791.105,2.882,2.882,0,0,1-.565-.056A3.005,3.005,0,0,0,4.447,66.74a6.026,6.026,0,0,1-3.73,1.284A6.384,6.384,0,0,1,0,67.982a8.49,8.49,0,0,0,4.6,1.351,8.486,8.486,0,0,0,8.545-8.545l-.01-.389A6,6,0,0,0,14.642,58.848Z" transform="translate(-0.001 -57.441)" fill="#fff"/>
    </g>
  </g>
</svg>
